<svg width="260" height="93" viewBox="0 0 260 93" fill="none" xmlns="http://www.w3.org/2000/svg">
<path class ="white" d="M69.7691 47.2594H74.9321C74.9673 48.0904 74.9909 48.6288 74.9909 48.8629C74.9909 50.1738 74.7909 51.2038 74.4028 51.9412C73.9794 52.7722 73.1327 53.334 71.886 53.6383C70.6394 53.931 68.4754 54.0831 65.4058 54.0831C62.1834 54.0831 59.8782 54.0246 58.5022 53.8958C57.1262 53.7671 56.103 53.533 55.3974 53.1702C54.7741 52.8424 54.3154 52.4094 54.0096 51.8592C53.7038 51.3091 53.5039 50.56 53.4098 49.6003C53.3392 48.8278 53.304 47.4349 53.304 45.4101C53.304 43.4437 53.3392 42.0157 53.4098 41.1379C53.4804 40.2601 53.6333 39.5929 53.8449 39.1013C54.3154 38.0245 55.268 37.3222 56.7146 37.0062C58.1612 36.6902 61.0661 36.5263 65.4411 36.5263C67.6286 36.5263 69.2163 36.5731 70.2042 36.6785C71.2039 36.7838 71.9919 36.9711 72.5799 37.2403C73.3443 37.6031 73.8854 38.1415 74.2029 38.8672C74.5204 39.5812 74.6733 40.6463 74.6733 42.0391C74.6733 42.1094 74.6616 42.402 74.6498 42.8819H69.4868C69.4633 42.3201 69.428 41.9455 69.381 41.7582C69.3339 41.571 69.2398 41.4071 69.0987 41.2901C68.8988 41.1145 68.3931 40.9974 67.5933 40.9155C66.7936 40.8336 65.5705 40.7985 63.9475 40.7985C62.3362 40.7985 61.219 40.8336 60.5956 40.9038C59.9723 40.974 59.5372 41.1145 59.2784 41.3252C58.9727 41.571 58.761 41.9923 58.6434 42.5776C58.5257 43.1745 58.4669 44.1108 58.4669 45.3866C58.4669 46.6741 58.5257 47.5871 58.6316 48.1138C58.7374 48.6405 58.9491 49.015 59.2549 49.2491C59.5372 49.4715 60.0076 49.6237 60.6427 49.7056C61.2778 49.7758 62.3951 49.8227 64.0063 49.8227C65.9821 49.8227 67.2993 49.7875 67.9697 49.729C68.6283 49.6588 69.0752 49.5183 69.3104 49.296C69.5927 48.9916 69.7573 48.3245 69.7691 47.2594ZM88.1159 36.5614C91.7735 36.5614 94.2903 36.6434 95.6663 36.8306C97.6422 37.0998 98.8535 38.0479 99.3004 39.6631C99.6062 40.7751 99.7591 42.6595 99.7591 45.3164C99.7591 47.9733 99.6062 49.8695 99.3004 50.9814C98.8535 52.5966 97.6422 53.5447 95.6663 53.8139C94.2903 54.0012 91.797 54.0831 88.1747 54.0831C84.4818 54.0831 81.9533 53.9895 80.5772 53.8139C78.6014 53.5447 77.3901 52.5966 76.9432 50.9814C76.6374 49.8695 76.4845 47.9499 76.4845 45.2111C76.4845 42.6127 76.6374 40.7633 76.9432 39.6631C77.3901 38.0479 78.6014 37.0998 80.5772 36.8306C81.9297 36.6434 84.4465 36.5614 88.1159 36.5614ZM88.1277 40.974C85.3874 40.974 83.7409 41.0443 83.1881 41.1847C82.5531 41.3486 82.1297 41.7231 81.9297 42.3083C81.7298 42.8819 81.6357 44.0406 81.6357 45.7612C81.6357 46.8029 81.6945 47.5637 81.8004 48.0202C82.0121 48.8863 82.6354 49.3896 83.6821 49.5066C84.4465 49.6003 85.9402 49.6588 88.163 49.6588C90.2446 49.6588 91.6206 49.6237 92.3145 49.5417C92.9966 49.4715 93.5141 49.296 93.8434 49.0385C94.1492 48.8044 94.3491 48.4649 94.455 48.0085C94.5608 47.552 94.6196 46.8146 94.6196 45.7729C94.6196 44.5439 94.5726 43.6427 94.502 43.0691C94.4197 42.4956 94.2668 42.0626 94.0551 41.7699C93.7846 41.4071 93.3259 41.173 92.7026 41.0911C92.044 41.0209 90.5269 40.974 88.1277 40.974ZM101.805 36.7955H110.861L119.741 49.5183H120.27L120.141 36.7955H125.398V53.8256H116.412L107.498 41.1028H106.933L107.051 53.8256H101.794V36.7955H101.805ZM127.162 48.184H132.16C132.148 49.0267 132.325 49.5769 132.666 49.8227C132.913 49.9865 133.23 50.0802 133.63 50.1036C134.03 50.1387 135.265 50.1504 137.347 50.1738C139.534 50.1621 140.84 50.1504 141.275 50.127C141.71 50.1036 142.063 50.045 142.31 49.928C142.686 49.7758 142.886 49.3428 142.886 48.6405C142.886 48.1372 142.745 47.7978 142.486 47.6222C142.216 47.4466 141.663 47.3647 140.84 47.3413C140.204 47.3413 138.852 47.2945 136.794 47.1891C134.689 47.0838 133.313 47.037 132.678 47.0136C131.443 46.9668 130.478 46.8497 129.82 46.6507C129.149 46.4518 128.632 46.1357 128.256 45.691C127.62 44.9536 127.303 43.7363 127.303 42.0157C127.303 40.0962 127.667 38.7385 128.397 37.9426C128.949 37.3339 129.808 36.936 130.949 36.7604C132.101 36.5848 134.43 36.5029 137.958 36.5029C140.451 36.5029 142.204 36.5731 143.203 36.7136C144.756 36.936 145.826 37.369 146.402 38.0128C146.979 38.6682 147.273 39.7685 147.273 41.3135V42.1094H142.263C142.251 41.6295 142.204 41.3135 142.145 41.1379C142.086 40.9623 141.969 40.8219 141.78 40.7165C141.557 40.5878 141.157 40.4941 140.604 40.459C140.04 40.4239 138.852 40.4005 137.029 40.4005C134.842 40.4005 133.501 40.4707 133.019 40.5995C132.536 40.7399 132.301 41.1145 132.301 41.7465C132.301 42.3435 132.536 42.7063 133.019 42.8468C133.419 42.9521 135.241 43.0574 138.487 43.1628C141.228 43.2447 143.051 43.3383 143.98 43.4554C144.909 43.5724 145.638 43.7831 146.179 44.0991C146.802 44.4737 147.237 44.9887 147.496 45.6441C147.755 46.2996 147.884 47.236 147.884 48.4532C147.884 50.0568 147.673 51.2506 147.237 52.0348C146.908 52.6083 146.461 53.0414 145.885 53.3223C145.309 53.6032 144.497 53.7905 143.462 53.8958C142.345 53.9895 140.263 54.048 137.217 54.048C134.665 54.048 132.783 53.9778 131.572 53.849C130.361 53.7203 129.443 53.4745 128.832 53.135C128.197 52.7605 127.75 52.2806 127.515 51.6837C127.268 51.0868 127.15 50.1738 127.15 48.9448L127.162 48.184ZM148.708 36.7955H169.23V41.1379H161.68V53.8256H156.27V41.1379H148.719V36.7955H148.708ZM170.406 53.8256V36.7955H182.884C185.813 36.8072 187.565 36.8306 188.141 36.8891C188.718 36.9477 189.282 37.1349 189.812 37.4744C190.458 37.8606 190.905 38.4107 191.14 39.0896C191.376 39.7802 191.505 40.857 191.505 42.3318C191.505 43.5724 191.435 44.4854 191.282 45.0706C191.129 45.6558 190.846 46.1123 190.423 46.4635C189.964 46.838 189.282 47.0955 188.377 47.236C189.459 47.3179 190.235 47.6339 190.705 48.1723C190.976 48.5 191.152 48.8863 191.223 49.3545C191.293 49.811 191.329 50.7824 191.329 52.2572V53.8256H186.248V52.9127C186.248 51.9646 186.213 51.2857 186.142 50.8878C186.072 50.4781 185.942 50.1738 185.754 49.9631C185.566 49.7641 185.295 49.6354 184.966 49.5886C184.625 49.53 183.931 49.5066 182.861 49.5066H175.581V53.8256H170.406ZM175.569 45.2462H182.837C184.096 45.2228 184.848 45.1994 185.095 45.176C185.331 45.1526 185.542 45.094 185.719 44.977C185.942 44.8365 186.095 44.6258 186.189 44.3566C186.283 44.0757 186.33 43.6544 186.33 43.0926C186.33 42.5424 186.283 42.1211 186.177 41.8402C186.072 41.571 185.895 41.372 185.636 41.2432C185.46 41.1613 185.237 41.1145 184.99 41.0911C184.743 41.0794 184.013 41.056 182.837 41.056H175.581V45.2462H175.569ZM193.222 36.7955H198.385V44.6258C198.409 46.4283 198.467 47.5637 198.573 48.0436C198.703 48.7107 199.138 49.1555 199.867 49.3545C200.596 49.5652 202.055 49.6705 204.266 49.6705C206.053 49.6705 207.3 49.6237 207.994 49.5183C208.688 49.413 209.182 49.2023 209.464 48.898C209.652 48.6756 209.793 48.4181 209.875 48.1138C209.946 47.7978 210.017 47.2711 210.052 46.522C210.099 45.7495 210.111 45.1174 210.111 44.6258V36.7955H215.274V44.6258C215.215 47.3413 215.133 49.1204 215.015 49.9631C214.815 51.3911 214.133 52.4445 212.98 53.1116C212.322 53.4979 211.404 53.7554 210.216 53.8841C209.017 54.0129 207.065 54.0831 204.336 54.0831C202.29 54.0831 200.714 54.048 199.596 53.9661C198.491 53.8958 197.527 53.7554 196.703 53.5681C194.892 53.135 193.834 52.0348 193.516 50.2674C193.399 49.6003 193.328 48.9799 193.304 48.4298C193.269 47.8797 193.257 46.6039 193.234 44.6141V36.7955H193.222ZM233.668 47.2594H238.831C238.866 48.0904 238.889 48.6288 238.889 48.8629C238.889 50.1738 238.689 51.2038 238.301 51.9412C237.878 52.7722 237.031 53.334 235.784 53.6383C234.538 53.931 232.374 54.0831 229.304 54.0831C226.07 54.0831 223.777 54.0246 222.401 53.8958C221.025 53.7671 220.001 53.533 219.296 53.1702C218.673 52.8424 218.214 52.4094 217.908 51.8592C217.602 51.3091 217.402 50.56 217.308 49.6003C217.238 48.8278 217.202 47.4349 217.202 45.4101C217.202 43.4437 217.238 42.0157 217.308 41.1379C217.379 40.2601 217.532 39.5929 217.743 39.1013C218.214 38.0245 219.166 37.3222 220.613 37.0062C222.06 36.6902 224.965 36.5263 229.34 36.5263C231.527 36.5263 233.115 36.5731 234.103 36.6785C235.102 36.7838 235.89 36.9711 236.478 37.2403C237.243 37.6031 237.784 38.1415 238.101 38.8672C238.419 39.5812 238.572 40.6463 238.572 42.0391C238.572 42.1094 238.56 42.402 238.548 42.8819H233.385C233.362 42.3201 233.326 41.9455 233.279 41.7582C233.232 41.571 233.138 41.4071 232.997 41.2901C232.797 41.1145 232.292 40.9974 231.492 40.9155C230.692 40.8336 229.469 40.7985 227.846 40.7985C226.235 40.7985 225.117 40.8336 224.494 40.9038C223.871 40.974 223.436 41.1145 223.177 41.3252C222.871 41.571 222.659 41.9923 222.542 42.5776C222.424 43.1745 222.365 44.1108 222.365 45.3866C222.365 46.6741 222.424 47.5871 222.53 48.1138C222.636 48.6405 222.848 49.015 223.153 49.2491C223.436 49.4715 223.906 49.6237 224.541 49.7056C225.176 49.7758 226.294 49.8227 227.905 49.8227C229.881 49.8227 231.198 49.7875 231.868 49.729C232.527 49.6588 232.974 49.5183 233.209 49.296C233.491 48.9916 233.656 48.3245 233.668 47.2594ZM239.477 36.7955H260V41.1379H252.45V53.8256H247.04V41.1379H239.489V36.7955H239.477Z" fill="#006548"/>
<path d="M161.986 19.0398C114.848 -2.26239 46.7768 12.5672 37.5328 42.2499C31.9112 60.3099 50.4344 74.3202 62.6304 80.1257C29.0886 71.4526 26.0778 49.7993 30.1471 39.0428C42.6135 6.15315 113.755 -10.3385 161.986 19.0398Z" fill="#6E6F72"/>
<path d="M42.6957 75.9588C53.7391 82.2675 64.1474 84.2222 80.4596 85.8608C37.1799 87.3941 21.2793 68.6435 17.5394 60.6727C13.3172 51.6837 13.576 43.4203 17.9863 34.5717C32.8049 4.85393 75.0379 -1.27923 105.369 1.17872C83.9055 0.968037 53.304 1.93951 30.3586 27.0808C22.867 35.2974 12.3411 58.5893 42.6957 75.9588Z" fill="#71BF4A"/>
<path d="M105.628 86.9494C91.6677 88.8221 83.5998 89.1733 73.168 89.1733H73.1562C38.6147 89.1733 11.1886 74.0627 9.23627 54.3289C7.95435 41.3252 11.4003 32.933 22.6436 20.8891L21.4557 22.1883C21.8438 21.7552 22.232 21.3222 22.6436 20.8891C6.24903 32.4415 -0.489906 44.5205 0.0275691 55.4057C1.35654 83.0869 49.6111 103.067 105.322 87.043C105.522 86.9845 105.628 86.9494 105.628 86.9494Z" fill="#006548"/>
<path class="white" d="M123.892 62.288H120.058C119.164 62.288 118.576 62.1826 118.282 61.9836C118 61.773 117.859 61.3984 117.859 60.8366C117.859 60.1577 118.047 59.713 118.435 59.5023C118.823 59.2916 119.635 59.1863 120.846 59.1863H122.587C123.528 59.1863 124.245 59.2214 124.763 59.3033C125.268 59.3852 125.574 59.5608 125.703 59.8417C125.833 60.1226 125.892 60.4855 125.892 60.9419H127.044V60.544C127.044 59.6896 126.762 59.0809 126.197 58.7181C125.633 58.3552 124.668 58.168 123.316 58.168H120.505C119.011 58.168 118 58.3669 117.483 58.7766C116.965 59.1746 116.706 59.83 116.706 60.743C116.706 61.8081 116.989 62.522 117.553 62.8732C118.129 63.2243 119.223 63.3999 120.834 63.3999H124.104C124.88 63.3999 125.409 63.5052 125.668 63.7159C125.939 63.9266 126.08 64.3128 126.08 64.8747C126.08 65.5067 125.915 65.9515 125.586 66.1973C125.256 66.4431 124.645 66.5601 123.751 66.5601H119.929C119.153 66.5601 118.623 66.4548 118.329 66.2441C118.024 66.0334 117.882 65.6706 117.882 65.179V64.6054H116.73V65.2492C116.73 66.0802 116.989 66.6772 117.506 67.04C118.035 67.4028 118.894 67.5784 120.082 67.5784H123.551C124.974 67.5784 125.95 67.3794 126.48 66.9815C126.997 66.5835 127.256 65.9749 127.256 65.179V64.6054C127.256 63.833 127.009 63.2594 126.527 62.8732C126.021 62.4869 125.151 62.288 123.892 62.288Z" fill="#6E6F72"/>
<path class="white" d="M137.429 63.2477H144.803V62.2411H137.429V59.2798H145.109V58.2733H136.194V67.473H145.168V66.4547H137.429V63.2477Z" fill="#6E6F72"/>
<path class="white" d="M163.279 61.4686C163.279 61.9953 163.103 62.3464 162.762 62.5337C162.421 62.721 161.927 62.8146 161.268 62.8146H155.364V59.2798H161.08C161.892 59.2798 162.456 59.3735 162.785 59.5491C163.115 59.7246 163.279 60.0875 163.279 60.6493V61.4686ZM161.515 58.2733H154.129V67.473H155.364V63.8329H161.362C162.091 63.8329 162.585 63.95 162.844 64.1724C163.103 64.3947 163.232 64.8161 163.232 65.4364V67.473H164.385V65.1555C164.385 64.1372 163.856 63.552 162.785 63.3764C163.397 63.3062 163.832 63.1424 164.103 62.8849C164.373 62.6274 164.502 62.1943 164.502 61.5856V60.8366C164.502 59.8534 164.279 59.1862 163.856 58.8234C163.432 58.4488 162.644 58.2733 161.515 58.2733Z" fill="#6E6F72"/>
<path class="white" d="M179.25 66.3611L174.875 58.2733H173.476L178.498 67.473H180.003L185.025 58.2733H183.637L179.25 66.3611Z" fill="#6E6F72"/>
<path class="white" d="M195.222 58.2733H193.987V67.473H195.222V58.2733Z" fill="#6E6F72"/>
<path class="white" d="M214.015 65.0034C214.015 65.5769 213.862 65.9866 213.557 66.209C213.251 66.4314 212.698 66.5484 211.898 66.5484H207.57C206.771 66.5484 206.218 66.3846 205.9 66.0451C205.583 65.7057 205.43 65.2141 205.43 64.5469V61.1643C205.43 60.4738 205.594 59.9705 205.924 59.6545C206.253 59.3384 206.806 59.1746 207.582 59.1746H211.91C212.639 59.1746 213.157 59.2916 213.451 59.5374C213.745 59.7715 213.898 60.2046 213.898 60.8132V61.2229H214.98V60.4152C214.98 58.9054 214.027 58.1563 212.133 58.1563H207.476C206.3 58.1563 205.465 58.4138 204.959 58.9405C204.454 59.4555 204.195 60.3099 204.195 61.4921V64.2075C204.195 65.3897 204.442 66.2441 204.948 66.7708C205.453 67.2858 206.3 67.555 207.476 67.555H212.133C213.239 67.555 214.027 67.3677 214.486 66.9932C214.944 66.6186 215.18 65.9749 215.18 65.0736V64.3948H214.027V65.0034H214.015Z" fill="#6E6F72"/>
<path class="white" d="M225.365 63.2477H232.738V62.2411H225.365V59.2798H233.044V58.2733H224.13V67.473H233.103V66.4547H225.365V63.2477Z" fill="#6E6F72"/>
<path class="white" d="M251.862 62.8732C251.379 62.4869 250.509 62.288 249.251 62.288H245.417C244.523 62.288 243.935 62.1826 243.641 61.9836C243.358 61.773 243.217 61.3984 243.217 60.8366C243.217 60.1577 243.405 59.713 243.794 59.5023C244.182 59.2916 244.993 59.1863 246.205 59.1863H247.945C248.886 59.1863 249.603 59.2214 250.121 59.3033C250.627 59.3852 250.932 59.5608 251.062 59.8417C251.191 60.1226 251.25 60.4855 251.25 60.9419H252.403V60.544C252.403 59.6896 252.12 59.0809 251.556 58.7181C250.991 58.3552 250.027 58.168 248.674 58.168H245.875C244.382 58.168 243.37 58.3669 242.853 58.7766C242.335 59.1746 242.077 59.83 242.077 60.743C242.077 61.8081 242.359 62.522 242.923 62.8732C243.488 63.2243 244.593 63.3999 246.205 63.3999H249.474C250.25 63.3999 250.78 63.5052 251.038 63.7159C251.309 63.9266 251.45 64.3128 251.45 64.8747C251.45 65.5067 251.285 65.9515 250.956 66.1973C250.627 66.4431 250.015 66.5601 249.121 66.5601H245.299C244.523 66.5601 243.994 66.4548 243.688 66.2441C243.394 66.0334 243.241 65.6706 243.241 65.179V64.6054H242.088V65.2492C242.088 66.0802 242.347 66.6772 242.865 67.04C243.394 67.4028 244.252 67.5784 245.44 67.5784H248.91C250.333 67.5784 251.309 67.3794 251.826 66.9815C252.344 66.5835 252.614 65.9749 252.614 65.179V64.6054C252.591 63.833 252.344 63.2594 251.862 62.8732Z" fill="#6E6F72"/>
<path class="white" d="M174.793 76.8366V76.9888C174.817 77.8081 174.875 77.9837 175.24 78.1241C175.522 78.2295 176.357 78.288 177.827 78.288C178.768 78.288 179.721 78.2295 180.132 78.1241C180.591 78.0305 180.826 77.6794 180.826 77.059C180.826 76.4387 180.685 76.1578 180.309 76.029C179.956 75.912 179.956 75.912 176.451 75.912C174.558 75.912 173.864 75.3736 173.864 73.9222C173.864 73.2785 174.052 72.8103 174.405 72.5177C174.77 72.2134 175.146 72.0963 175.969 72.0027C176.498 71.9442 177.463 71.8973 178.157 71.8973C179.768 71.8973 180.568 72.0495 181.062 72.4474C181.473 72.7635 181.591 73.1263 181.603 74.0393H180.65V73.9339C180.65 73.2434 180.544 73.0561 180.05 72.8922C179.697 72.7752 179.027 72.7049 178.121 72.7049C175.405 72.7049 174.864 72.9039 174.864 73.9222C174.864 74.5777 174.993 74.7883 175.475 74.9288C175.805 75.0107 176.369 75.0693 177.204 75.081C177.733 75.081 177.733 75.081 179.65 75.0927C180.697 75.0927 181.191 75.2682 181.52 75.7481C181.732 76.0524 181.838 76.4387 181.838 76.9771C181.838 77.8783 181.567 78.4167 181.003 78.7094C180.462 78.9669 179.427 79.0722 177.263 79.0722C175.628 79.0722 175.005 78.9903 174.558 78.7211C174.064 78.405 173.899 78.0305 173.899 77.1527C173.899 77.1292 173.899 76.9654 173.911 76.8366H174.793V76.8366Z" fill="#006548"/>
<path class="white" d="M184.155 71.9207V79.0605H183.202V71.9207H184.155Z" fill="#006548"/>
<path class="white" d="M187.365 71.9207L193.634 78.1826H193.857V71.9207H194.81V79.0605H193.187L186.93 72.8103H186.719V79.0605H185.766V71.9207H187.365Z" fill="#006548"/>
<path class="white" d="M204.677 76.626C204.618 77.9955 204.571 78.2647 204.23 78.5807C203.807 78.9787 203.137 79.084 200.914 79.084C198.079 79.084 197.327 78.9787 196.856 78.5222C196.445 78.1242 196.292 77.3283 196.292 75.6077C196.292 73.6296 196.468 72.7752 196.962 72.389C197.303 72.1198 197.715 72.0261 198.797 71.9559C199.244 71.9208 200.196 71.8974 200.761 71.8974C202.972 71.8974 203.725 72.0378 204.195 72.506C204.513 72.822 204.56 73.0561 204.583 74.2851H203.689V74.0393C203.678 73.337 203.572 73.1146 203.16 72.9625C202.807 72.8337 201.96 72.7635 200.714 72.7635C198.82 72.7635 197.95 72.8571 197.656 73.0795C197.385 73.3019 197.256 73.9925 197.256 75.2332C197.256 75.8184 197.315 76.9655 197.362 77.3166C197.444 77.8667 197.68 78.0891 198.291 78.1359C198.762 78.1945 199.738 78.2179 200.62 78.2179C201.325 78.2179 202.584 78.1593 202.854 78.1242C203.572 78.0189 203.725 77.8199 203.725 76.9304L203.736 76.6143H204.677V76.626Z" fill="#006548"/>
<path class="white" d="M205.995 71.9207H213.016V72.7517H206.947V74.9405H212.757V75.7715H206.947V78.2178H213.028V79.0488H205.995V71.9207V71.9207Z" fill="#006548"/>
<path class="white" d="M222.777 71.9207V79.0605H221.836V72.8103H221.507L219.19 74.9756L218.626 74.3318L221.178 71.9207H222.777Z" fill="#006548"/>
<path class="white" d="M226.458 77.024V77.1645C226.458 78.1008 226.823 78.2764 228.846 78.2764C230.857 78.2764 231.703 78.1945 232.068 77.9487C232.386 77.7497 232.491 77.2464 232.491 75.7599V75.4439C232.339 75.6897 232.15 75.8652 231.833 76.0057C231.445 76.193 230.88 76.2398 229.351 76.2398C227.411 76.2398 226.764 76.1813 226.305 75.9238C225.823 75.6663 225.588 75.0576 225.588 74.051C225.588 72.9859 225.87 72.4358 226.529 72.1666C226.94 71.991 228.034 71.8974 229.422 71.8974C230.492 71.8974 231.515 71.9559 232.021 72.0495C232.75 72.19 233.244 72.6699 233.35 73.3604C233.409 73.735 233.444 74.3787 233.444 75.2215C233.444 76.3685 233.385 77.4102 233.279 77.7848C232.974 78.9084 232.339 79.0957 228.787 79.0957C226.964 79.0957 226.399 78.9904 225.941 78.5339C225.623 78.2179 225.541 77.9252 225.529 77.0357H226.458V77.024ZM226.552 74.0042C226.552 74.9406 226.764 75.28 227.387 75.3502C227.775 75.3971 228.493 75.4088 229.857 75.4088C231.198 75.4088 231.621 75.3502 231.974 75.1395C232.327 74.9289 232.444 74.6714 232.444 74.1212C232.444 72.9391 232.08 72.7284 230.045 72.7284C226.787 72.7401 226.552 72.822 226.552 74.0042Z" fill="#006548"/>
<path class="white" d="M243.088 77.0591C243.088 78.803 242.523 79.0839 238.984 79.0839C235.538 79.0839 235.032 78.8382 235.032 77.141C235.032 75.9471 235.279 75.5609 236.173 75.3502C235.408 75.1981 235.138 74.8001 235.138 73.8754C235.138 72.9391 235.373 72.4007 235.879 72.1666C236.29 71.9793 237.114 71.9091 238.748 71.9091C241.465 71.9091 242.006 71.9676 242.418 72.3304C242.794 72.6465 242.947 73.0912 242.947 73.8169C242.947 74.4841 242.806 74.8937 242.5 75.1278C242.382 75.2098 242.288 75.2683 241.959 75.3619C242.865 75.596 243.088 75.9471 243.088 77.0591ZM236.373 75.994C236.102 76.1578 235.996 76.4504 235.996 77.0591C235.996 77.7496 236.102 77.9954 236.455 78.1125C236.737 78.1944 237.866 78.2646 239.101 78.2646C240.736 78.2646 241.559 78.1827 241.818 77.9837C242.053 77.8199 242.124 77.5975 242.124 77.024C242.124 75.8652 241.924 75.7833 239.078 75.7833C237.361 75.7716 236.655 75.8301 236.373 75.994ZM236.431 72.9157C236.208 73.0678 236.102 73.3839 236.102 73.8872C236.102 74.9289 236.267 74.9991 238.525 74.9991C240.524 74.9991 240.983 74.9874 241.394 74.9054C241.841 74.8235 241.994 74.5309 241.994 73.852C241.994 73.2902 241.877 72.9976 241.594 72.8689C241.371 72.7752 240.454 72.7284 238.737 72.7284C237.137 72.7401 236.667 72.7752 236.431 72.9157Z" fill="#006548"/>
<path class="white" d="M245.464 77.024V77.1645C245.464 78.1008 245.828 78.2764 247.851 78.2764C249.862 78.2764 250.709 78.1945 251.074 77.9487C251.391 77.7497 251.497 77.2464 251.497 75.7599V75.4439C251.344 75.6897 251.156 75.8652 250.838 76.0057C250.45 76.193 249.886 76.2398 248.357 76.2398C246.416 76.2398 245.77 76.1813 245.311 75.9238C244.829 75.6663 244.593 75.0576 244.593 74.051C244.593 72.9859 244.876 72.4358 245.534 72.1666C245.946 71.991 247.04 71.8974 248.428 71.8974C249.498 71.8974 250.521 71.9559 251.027 72.0495C251.756 72.19 252.25 72.6699 252.356 73.3604C252.414 73.735 252.45 74.3787 252.45 75.2215C252.45 76.3685 252.391 77.4102 252.285 77.7848C251.979 78.9084 251.344 79.0957 247.792 79.0957C245.969 79.0957 245.405 78.9904 244.946 78.5339C244.629 78.2179 244.546 77.9252 244.535 77.0357H245.464V77.024ZM245.546 74.0042C245.546 74.9406 245.758 75.28 246.381 75.3502C246.769 75.3971 247.487 75.4088 248.839 75.4088C250.18 75.4088 250.603 75.3502 250.956 75.1395C251.309 74.9289 251.427 74.6714 251.427 74.1212C251.427 72.9391 251.062 72.7284 249.027 72.7284C245.781 72.7401 245.546 72.822 245.546 74.0042Z" fill="#006548"/>
</svg>
